<svg width="18" height="18" viewBox="0 0 18 18" fill="none" xmlns="http://www.w3.org/2000/svg">
<path d="M13.4389 10.74C13.2447 10.9282 13.1554 11.2005 13.1997 11.4675L13.8664 15.1575C13.9227 15.4702 13.7907 15.7868 13.5289 15.9675C13.2724 16.155 12.9312 16.1775 12.6514 16.0275L9.32968 14.295C9.21418 14.2335 9.08593 14.2005 8.95468 14.1968H8.75143C8.68093 14.2073 8.61193 14.2297 8.54893 14.2642L5.22643 16.005C5.06218 16.0875 4.87618 16.1168 4.69393 16.0875C4.24993 16.0035 3.95368 15.5805 4.02643 15.1343L4.69393 11.4443C4.73818 11.175 4.64893 10.9012 4.45468 10.71L1.74643 8.085C1.51993 7.86525 1.44118 7.53525 1.54468 7.2375C1.64518 6.9405 1.90168 6.72375 2.21143 6.675L5.93893 6.13425C6.22243 6.105 6.47143 5.9325 6.59893 5.6775L8.24143 2.31C8.28043 2.235 8.33068 2.166 8.39143 2.1075L8.45893 2.055C8.49418 2.016 8.53468 1.98375 8.57968 1.9575L8.66143 1.9275L8.78893 1.875H9.10468C9.38668 1.90425 9.63493 2.073 9.76468 2.325L11.4289 5.6775C11.5489 5.92275 11.7822 6.093 12.0514 6.13425L15.7789 6.675C16.0939 6.72 16.3572 6.9375 16.4614 7.2375C16.5597 7.53825 16.4749 7.86825 16.2439 8.085L13.4389 10.74Z" fill="#FBBC05"/>
</svg>
