<svg xmlns="http://www.w3.org/2000/svg" width="32" height="32" fill="none" viewBox="0 0 32 32"><path fill="#227DDE" d="M12.1916 27.7096V23.6204C12.1916 22.5842 13.0342 21.7424 14.0779 21.7358H17.9101C18.9585 21.7358 19.8083 22.5796 19.8083 23.6204V27.6977C19.8083 28.5965 20.5387 29.3269 21.4439 29.3334H24.0584C25.2795 29.3365 26.4517 28.8571 27.3162 28.001C28.1808 27.1449 28.6667 25.9824 28.6666 24.7701V13.1545C28.6666 12.1753 28.2294 11.2464 27.4728 10.6181L18.5906 3.56577C17.038 2.33224 14.8205 2.37209 13.3138 3.66059L4.62266 10.6181C3.8303 11.2278 3.35672 12.1595 3.33331 13.1545V24.7583C3.33331 27.285 5.39649 29.3334 7.94154 29.3334H10.4964C10.9322 29.3365 11.3513 29.1668 11.6606 28.862C11.9699 28.5571 12.1439 28.1423 12.1439 27.7096H12.1916Z"/></svg>