<svg width="32" height="32" viewBox="0 0 32 32" fill="none" xmlns="http://www.w3.org/2000/svg">
<path fill-rule="evenodd" clip-rule="evenodd" d="M24.6667 31.3334H7.33335C5.86069 31.3334 4.66669 30.1394 4.66669 28.6667V3.33341C4.66669 1.86075 5.86069 0.666748 7.33335 0.666748H19.982C19.9834 0.666748 19.9854 0.666748 19.9867 0.666748H20C20.2134 0.666748 20.3954 0.774081 20.5174 0.930081L27.07 7.48275C27.2267 7.60475 27.3334 7.78675 27.3334 8.00008V8.01408C27.3334 8.01541 27.3334 8.01608 27.3334 8.01741V28.6667C27.3334 30.1394 26.1394 31.3334 24.6667 31.3334ZM20.6667 2.92075V7.33341H25.0794L20.6667 2.92075ZM26 8.66675H20C19.6314 8.66675 19.3334 8.36808 19.3334 8.00008V2.00008H7.33335C6.59735 2.00008 6.00002 2.59741 6.00002 3.33341V28.6667C6.00002 29.4027 6.59735 30.0001 7.33335 30.0001H24.6667C25.4027 30.0001 26 29.4027 26 28.6667V8.66675ZM22 26.0001H10C9.63135 26.0001 9.33335 25.7021 9.33335 25.3334C9.33335 24.9654 9.63135 24.6667 10 24.6667H22C22.3687 24.6667 22.6667 24.9654 22.6667 25.3334C22.6667 25.7021 22.3687 26.0001 22 26.0001ZM22 20.6667H10C9.63135 20.6667 9.33335 20.3687 9.33335 20.0001C9.33335 19.6321 9.63135 19.3334 10 19.3334H22C22.3687 19.3334 22.6667 19.6321 22.6667 20.0001C22.6667 20.3687 22.3687 20.6667 22 20.6667ZM22 15.3334H10C9.63135 15.3334 9.33335 15.0354 9.33335 14.6667C9.33335 14.2987 9.63135 14.0001 10 14.0001H22C22.3687 14.0001 22.6667 14.2987 22.6667 14.6667C22.6667 15.0354 22.3687 15.3334 22 15.3334Z" fill="#ADADAD"/>
</svg>
